<svg width="174.6" height="72.4" viewBox="0 0 174.6 72.4" xmlns="http://www.w3.org/2000/svg"><g id="svgGroup" stroke-linecap="round" fill-rule="evenodd" font-size="9pt" stroke="#000000" stroke-width="0.5mm" fill="#b3fff0" style="stroke:#000000;stroke-width:0.5mm;fill:#b3fff0"><path d="M 65.2 66.4 L 70.9 55.8 Q 75.5 47.5 78.95 40.55 Q 82.4 33.6 84.9 28.1 Q 92.4 11 92.4 2.2 Q 92.4 1.6 93.25 0.8 Q 94.1 0 94.9 0 Q 96.1 0 96.1 2.3 Q 96.1 8.8 91.4 22 Q 89.5 27 87.5 31.7 Q 85.5 36.4 83.3 40.8 Q 87.6 35.6 92.2 30.7 Q 96.8 25.8 101.8 21.2 Q 116.6 7.3 123.4 7.3 Q 127.7 7.3 127.7 12.9 Q 127.7 18.9 121.8 34.5 Q 114.2 54.1 113.4 57 Q 136.1 29.5 159.6 16.9 Q 162.8 15.2 166.35 13.55 Q 169.9 11.9 171.8 11.9 Q 174.6 11.9 174.6 15.3 Q 174.6 17 174 19.4 Q 173.4 21.8 172 24.7 L 162.8 44.2 Q 161.5 47 159.95 50.4 Q 158.4 53.8 157.05 57.15 Q 155.7 60.5 154.8 63.15 Q 153.9 65.8 153.9 67.2 Q 153.9 68.8 155.2 68.8 Q 157.2 68.8 160.25 66.4 Q 163.3 64 166.8 60.3 Q 167.3 59.7 168.15 58.9 Q 169 58.1 169.7 58.1 Q 171.3 58.1 171.3 59.9 Q 171.3 60.2 171.1 60.55 Q 170.9 60.9 170.2 61.6 L 167.6 64.2 Q 166.3 65.5 165.2 66.5 Q 162.6 68.7 159.75 70.45 Q 156.9 72.2 154.3 72.2 Q 150.2 72.2 150.2 67.6 Q 150.2 64.8 152.2 58.9 Q 154.2 53 158.3 44 L 168.8 21.2 Q 169.9 18.9 170.2 17.95 Q 170.5 17 170.5 16.6 Q 170.5 16 170 16 Q 169.8 16 168.95 16.25 Q 168.1 16.5 166 17.5 Q 159.9 20.3 152.6 25 Q 145.3 29.7 139 35.2 Q 133.9 39.6 129.9 43.6 Q 125.9 47.6 122.1 51.9 Q 118.3 56.2 113.7 61.7 Q 112.4 63.2 111.9 63.75 Q 111.4 64.3 110.3 64.3 Q 108.6 64.3 108.6 62.5 Q 108.6 60.6 109.4 57.5 Q 110.2 54.4 111.4 51.2 L 118.8 31.4 Q 121.5 24.1 122.8 19.3 Q 124.1 14.5 124.1 12.1 Q 124.1 10.1 122.4 10.1 Q 119.1 10.1 107.5 20.7 Q 103.5 24.4 100 27.8 Q 96.5 31.2 93.6 34.4 Q 89.7 38.6 86.5 42.4 Q 83.3 46.2 80.35 50.25 Q 77.4 54.3 74.3 59.2 Q 71.2 64.1 67.6 70.6 Q 66.6 72.4 65.4 72.4 Q 63.4 72.4 63.4 70.5 Q 63.4 70 63.85 69.05 Q 64.3 68.1 65.2 66.4 Z M 19.9 34.3 L 33 12.4 Q 34.1 10.4 35.7 7.7 Q 37.3 5 39.6 1.3 Q 40.2 0.4 40.9 0.4 Q 41.6 0.4 42.3 1.05 Q 43 1.7 43 2.4 Q 43 2.8 38 11.25 Q 33 19.7 22.9 36.4 Q 19.1 42.7 14.65 50.3 Q 10.2 57.9 5.2 66.8 Q 34.2 59 49.8 59 Q 54.5 59 57.65 60.55 Q 60.8 62.1 60.8 63.6 Q 60.8 65.3 59.1 65.3 Q 57.7 65.3 57.7 63.8 L 57.7 63.5 Q 56.7 63 54.3 62.7 Q 51.9 62.4 48.8 62.4 Q 45 62.4 40.2 63.05 Q 35.4 63.7 30.45 64.65 Q 25.5 65.6 21.2 66.6 Q 17 67.5 13.25 68.55 Q 9.5 69.6 6.3 70.4 Q 4.4 70.8 3.55 71.1 Q 2.7 71.4 2.5 71.4 Q 1.8 71.4 0.9 70.7 Q 0 70 0 69.2 Q 0 68.3 2 64.6 Q 4 60.9 8.4 53.5 Q 12.8 46.1 19.9 34.3 Z" vector-effect="non-scaling-stroke"/></g></svg>